<svg xmlns="http://www.w3.org/2000/svg" width="20" height="28" viewBox="0 0 20 28" fill="none">
  <path d="M19.6075 9.74474C19.6075 8.46504 19.3555 7.19787 18.8657 6.01559C18.376 4.8333 17.6582 3.75905 16.7533 2.85417C15.8485 1.94928 14.7742 1.23149 13.5919 0.741774C12.4096 0.252055 11.1425 0 9.86278 0C8.58308 0 7.31592 0.252055 6.13363 0.741774C4.95134 1.23149 3.87709 1.94928 2.97221 2.85417C2.06733 3.75905 1.34953 4.8333 0.859816 6.01559C0.370097 7.19787 0.118042 8.46504 0.118042 9.74474C0.118042 11.6756 0.687413 13.4714 1.65632 14.986H1.64518L9.86278 27.8421L18.0804 14.986H18.0706C19.0742 13.4221 19.6076 11.6029 19.6075 9.74474ZM9.86278 13.9211C8.75515 13.9211 7.69289 13.4811 6.90968 12.6978C6.12647 11.9146 5.68646 10.8524 5.68646 9.74474C5.68646 8.63711 6.12647 7.57485 6.90968 6.79164C7.69289 6.00842 8.75515 5.56842 9.86278 5.56842C10.9704 5.56842 12.0327 6.00842 12.8159 6.79164C13.5991 7.57485 14.0391 8.63711 14.0391 9.74474C14.0391 10.8524 13.5991 11.9146 12.8159 12.6978C12.0327 13.4811 10.9704 13.9211 9.86278 13.9211Z" fill="white"/>
</svg>