<svg width="12" height="15" viewBox="0 0 12 15" fill="none" xmlns="http://www.w3.org/2000/svg">
<path id="Vector" d="M11.1414 5.25C11.1414 4.56056 11.0056 3.87787 10.7417 3.24091C10.4779 2.60395 10.0912 2.0252 9.60367 1.53769C9.11616 1.05018 8.53741 0.66347 7.90045 0.399632C7.26349 0.135795 6.5808 0 5.89136 0C5.20192 0 4.51923 0.135795 3.88227 0.399632C3.24531 0.66347 2.66655 1.05018 2.17905 1.53769C1.69154 2.0252 1.30483 2.60395 1.04099 3.24091C0.777153 3.87787 0.641357 4.56056 0.641357 5.25C0.641357 6.29025 0.948107 7.25775 1.47011 8.07375H1.46411L5.89136 15L10.3186 8.07375H10.3134C10.854 7.23119 11.1414 6.25111 11.1414 5.25ZM5.89136 7.5C5.29462 7.5 4.72232 7.26295 4.30037 6.84099C3.87841 6.41903 3.64136 5.84674 3.64136 5.25C3.64136 4.65326 3.87841 4.08097 4.30037 3.65901C4.72232 3.23705 5.29462 3 5.89136 3C6.48809 3 7.06039 3.23705 7.48235 3.65901C7.9043 4.08097 8.14136 4.65326 8.14136 5.25C8.14136 5.84674 7.9043 6.41903 7.48235 6.84099C7.06039 7.26295 6.48809 7.5 5.89136 7.5Z" fill="#FF1500"/>
</svg>
