<svg width="124" height="124" viewBox="0 0 124 124" fill="none" xmlns="http://www.w3.org/2000/svg">
<g id="Group 50">
<circle id="Ellipse 8" cx="62" cy="62" r="62" fill="white"/>
<path id="Vector" d="M44.3595 30.3575C44.3734 32.1411 43.6849 33.8585 42.4426 35.1385C41.2003 36.4184 39.5042 37.1579 37.721 37.1971C35.9415 37.1325 34.2549 36.3866 33.0098 35.1137C31.7647 33.8407 31.0563 32.138 31.031 30.3575C31.1079 28.6224 31.8421 26.9815 33.0845 25.7678C34.3269 24.5541 35.9845 23.8585 37.721 23.8223C39.4524 23.8592 41.1041 24.5565 42.3382 25.7714C43.5723 26.9863 44.2954 28.627 44.3595 30.3575ZM31.748 49.3495C31.748 45.4191 34.2496 46.0329 37.721 46.0329C41.1924 46.0329 43.6425 45.4191 43.6425 49.3495V87.643C43.6425 91.6251 41.1408 90.8101 37.721 90.8101C34.3012 90.8101 31.748 91.6251 31.748 87.643V49.3495ZM53.9586 49.3547C53.9586 47.1574 54.7736 46.3372 56.0476 46.0845C57.3268 45.8266 61.7164 46.0845 63.2483 46.0845C64.7803 46.0845 65.3941 48.5862 65.3425 50.474C66.6527 48.7158 68.392 47.3231 70.3941 46.4291C72.3962 45.535 74.5942 45.1695 76.7779 45.3675C78.9224 45.2366 81.0704 45.5582 83.0825 46.3114C85.0945 47.0646 86.9257 48.2327 88.457 49.7396C89.9883 51.2466 91.1855 53.0588 91.9708 55.0586C92.7562 57.0584 93.1121 59.2009 93.0155 61.3472V87.4883C93.0155 91.4703 90.5654 90.6554 87.0889 90.6554C83.6175 90.6554 81.1674 91.4703 81.1674 87.4883V67.0675C81.2574 66.0167 81.1201 64.9588 80.7649 63.9657C80.4097 62.9726 79.845 62.0676 79.1091 61.3121C78.3732 60.5566 77.4833 59.9683 76.4999 59.5872C75.5165 59.2061 74.4625 59.0411 73.4097 59.1035C72.3609 59.0758 71.3183 59.2715 70.3509 59.6774C69.3834 60.0833 68.5134 60.6902 67.7983 61.458C67.0833 62.2257 66.5396 63.1366 66.2034 64.1304C65.8671 65.1242 65.746 66.1781 65.848 67.2223V87.643C65.848 91.6251 63.3463 90.8101 59.8749 90.8101C56.4035 90.8101 53.9535 91.6251 53.9535 87.643V49.3495L53.9586 49.3547Z" stroke="#FF1500" stroke-width="3" stroke-linecap="round" stroke-linejoin="round"/>
</g>
</svg>
