<svg width="124" height="124" viewBox="0 0 124 124" fill="none" xmlns="http://www.w3.org/2000/svg">
<g id="Group 49">
<circle id="Ellipse 9" cx="62" cy="62" r="62" fill="white"/>
<path id="Vector" d="M48.98 31H75.02C84.94 31 93 39.06 93 48.98V75.02C93 79.7886 91.1057 84.3619 87.7338 87.7338C84.3619 91.1057 79.7886 93 75.02 93H48.98C39.06 93 31 84.94 31 75.02V48.98C31 44.2114 32.8943 39.6381 36.2662 36.2662C39.6381 32.8943 44.2114 31 48.98 31ZM48.36 37.2C45.4002 37.2 42.5616 38.3758 40.4687 40.4687C38.3758 42.5616 37.2 45.4002 37.2 48.36V75.64C37.2 81.809 42.191 86.8 48.36 86.8H75.64C78.5998 86.8 81.4384 85.6242 83.5313 83.5313C85.6242 81.4384 86.8 78.5998 86.8 75.64V48.36C86.8 42.191 81.809 37.2 75.64 37.2H48.36ZM78.275 41.85C79.3027 41.85 80.2883 42.2583 81.015 42.985C81.7417 43.7117 82.15 44.6973 82.15 45.725C82.15 46.7527 81.7417 47.7383 81.015 48.465C80.2883 49.1917 79.3027 49.6 78.275 49.6C77.2473 49.6 76.2617 49.1917 75.535 48.465C74.8083 47.7383 74.4 46.7527 74.4 45.725C74.4 44.6973 74.8083 43.7117 75.535 42.985C76.2617 42.2583 77.2473 41.85 78.275 41.85ZM62 46.5C66.1109 46.5 70.0533 48.133 72.9602 51.0398C75.867 53.9467 77.5 57.8891 77.5 62C77.5 66.1109 75.867 70.0533 72.9602 72.9602C70.0533 75.867 66.1109 77.5 62 77.5C57.8891 77.5 53.9467 75.867 51.0398 72.9602C48.133 70.0533 46.5 66.1109 46.5 62C46.5 57.8891 48.133 53.9467 51.0398 51.0398C53.9467 48.133 57.8891 46.5 62 46.5ZM62 52.7C59.5335 52.7 57.168 53.6798 55.4239 55.4239C53.6798 57.168 52.7 59.5335 52.7 62C52.7 64.4665 53.6798 66.832 55.4239 68.5761C57.168 70.3202 59.5335 71.3 62 71.3C64.4665 71.3 66.832 70.3202 68.5761 68.5761C70.3202 66.832 71.3 64.4665 71.3 62C71.3 59.5335 70.3202 57.168 68.5761 55.4239C66.832 53.6798 64.4665 52.7 62 52.7Z" fill="#FF1500"/>
</g>
</svg>
