<svg width="126" height="42" viewBox="0 0 126 42" fill="none" xmlns="http://www.w3.org/2000/svg">
<g id="logo 1" clip-path="url(#clip0_1_41)">
<path id="Vector" d="M27.4243 38.7334C25.1371 38.7692 23.1302 38.805 21.3699 38.8407C21.6726 38.7216 21.7175 38.5903 21.7175 38.5903C21.7175 38.5903 21.852 38.3996 21.3699 38.185C20.8878 37.9703 20.4169 37.3979 20.1254 37.4337C19.8451 37.4695 19.5648 37.5768 19.3854 37.5768C19.3854 37.5768 19.7442 37.3979 19.9236 37.2191C19.9236 37.2191 19.0153 37.5172 18.4885 37.2787C18.4885 37.2787 18.8696 37.0999 19.2172 36.8614C19.2172 36.8614 19.1723 36.5275 18.7688 36.611C18.3651 36.6825 18.1296 36.8972 17.7372 36.921C17.3448 36.9448 17.143 36.8733 17.143 36.8733C17.143 36.8733 17.6476 36.5513 18.0176 36.4082C18.3203 36.289 18.8248 36.2293 18.8248 36.2293C18.9145 36.1817 19.2172 35.2874 20.7756 32.6164C21.0447 32.1632 21.5269 31.4359 21.8745 30.8993C22.2108 30.3746 22.4911 29.7307 22.4463 29.3253C22.4013 28.8961 21.953 27.0955 21.1121 26.4755C20.2823 25.8555 19.8562 25.5096 19.8562 25.5096C19.8562 25.5096 20.5066 25.7242 20.9775 26.0581C21.4484 26.392 21.796 26.392 21.796 26.392C21.796 26.392 21.482 25.772 21.3699 25.5096C21.2578 25.2473 20.1366 24.6511 19.7666 24.5556C19.4079 24.4603 17.9951 25.3666 17.7036 25.8435C17.7485 25.6527 17.827 25.4738 17.9166 25.3427C18.2194 24.9253 19.1388 24.3649 19.1388 24.3649C19.1388 24.3649 17.3111 24.9491 16.6945 25.8077C16.6945 25.8077 17.4794 24.4126 18.836 23.8403C19.6433 23.4945 20.4506 23.5421 20.4506 23.5421C20.0245 22.8028 18.6455 21.0262 18.6342 21.0262C17.4233 20.7638 14.9679 21.2646 14.9679 21.2646C15.3828 20.9546 16.6833 20.7042 17.3785 20.5849C17.6476 20.5373 17.8381 20.5135 17.8381 20.5135C17.8381 20.5135 17.8381 20.4418 17.827 20.3107C17.782 19.7622 17.4794 17.3297 17.0757 16.1373C16.5152 14.4678 15.9097 13.1681 15.9097 13.1681C15.9097 13.1681 16.6833 13.9909 17.4681 15.1595C17.9951 15.9464 18.3315 17.3416 18.3315 17.3416C18.0961 14.6349 16.1339 11.5107 16.1339 11.5107C17.1767 12.3692 18.1185 13.6929 18.7351 14.8137C18.6005 12.3454 17.939 10.1991 17.0646 9.57901C17.3672 9.78171 18.1072 10.2944 18.5109 10.9622C18.5109 10.9622 19.2396 9.90095 19.5984 9.47168C20.0917 8.8874 20.5851 8.51775 20.5851 8.51775C20.5851 8.51775 20.5627 8.45813 20.5178 8.36274C20.5963 8.27927 20.6747 8.18388 20.7645 8.08848C21.2465 7.61152 21.3475 7.33727 21.3475 7.33727C21.1008 7.51613 20.6636 7.62345 20.6636 7.62345C20.6636 7.62345 21.1232 7.27765 21.4147 6.91993C21.7063 6.57413 21.8856 6.34756 21.8856 6.34756C21.7623 6.68145 21.6839 7.02724 21.6839 7.02724C21.908 6.908 22.4911 6.64567 22.9508 5.90638C23.4105 5.15516 24.1281 4.12968 24.4196 3.73619C24.711 3.34269 25.0699 2.71072 25.0699 2.71072C25.0699 2.9492 25.1147 3.35462 25.1147 3.35462C25.2156 3.23538 25.6865 2.82996 25.7425 2.78225C25.9108 2.67494 26.3143 2.62725 26.3817 2.57955C26.4938 2.48415 26.5049 2.26952 26.5049 2.26952C26.4265 2.37684 26.2358 2.40069 26.2358 2.40069C26.2919 2.29338 26.4377 2.29336 26.4041 2.01911C26.3817 1.8641 26.2584 1.74486 26.2584 1.74486C26.2584 1.74486 26.3256 2.30529 26.1238 2.31722L25.6416 2.37684C25.6416 2.37684 25.9332 2.2576 26.0004 2.1145C26.0677 1.98334 25.978 1.58985 25.8995 1.49445C25.8099 1.41099 25.5295 1.31559 25.5744 1.30367C25.6192 1.29174 26.0004 1.16058 26.1462 1.13673C26.2919 1.11288 26.4041 1.00557 26.2584 0.922097C26.1125 0.838628 25.5856 0.850553 25.5856 0.850553C25.339 0.802856 25.0025 1.13673 24.8568 1.33944C24.711 1.54215 24.7783 1.87603 24.711 2.26952C24.6438 2.67494 23.9711 3.35462 23.9711 3.35462C24.0831 3.10421 24.1392 2.71072 24.1392 2.71072C24.1392 2.71072 23.4217 3.43809 22.6144 3.71234C21.8072 3.98659 20.7532 5.03591 20.2599 5.60828C20.0245 5.88253 19.6881 6.08524 19.3405 6.2641C19.8003 6.49066 20.0132 7.18226 20.103 7.49228C20.1254 7.57575 20.1366 7.63537 20.1478 7.6473C20.1478 7.6473 19.7778 7.13456 19.3966 6.89607C19.1499 6.74107 18.9145 6.63374 18.7239 6.57412C18.5781 6.52643 18.466 6.49066 18.3988 6.47873L16.7394 7.05109C16.6833 6.94377 16.56 6.86031 16.56 6.86031C16.5487 7.18225 16.3133 8.12426 15.8424 8.64892C15.7528 8.75623 15.6182 8.86355 15.4949 8.95895C15.3267 9.03049 15.1697 8.75623 15.2034 8.66085C15.2258 8.60123 15.4724 8.55353 15.4724 8.55353C15.4724 8.55353 15.3491 8.49391 15.2482 8.49391C15.1136 8.49391 14.9791 8.48198 14.9791 8.48198C14.9791 8.48198 15.2034 8.35082 15.3715 8.33889C15.5397 8.32696 15.7864 8.26736 15.7864 8.26736C15.7864 8.26736 15.6069 8.19581 15.45 8.14812C15.2819 8.10041 15.024 8.07657 15.024 8.07657C15.024 8.07657 15.024 8.07657 15.1249 7.96924C15.2258 7.86193 15.4949 7.68307 15.4949 7.68307L15.1921 6.70529C15.1921 6.70529 15.0688 6.6099 14.923 6.58605C14.7773 6.5622 14.3288 6.38334 14.3288 6.38334L14.9455 6.39526L14.7101 5.21478C14.7101 5.21478 15.1473 5.29825 15.4052 5.23863C15.6519 5.19092 16.2461 4.79743 16.2461 4.79743L16.6048 5.67981C16.6048 5.67981 16.5824 5.16708 16.5487 4.95244C16.5152 4.73781 16.3245 3.93889 16.2348 3.77196C16.0778 3.50963 15.7415 3.35462 15.7415 3.35462C14.811 2.9492 13.3422 3.08036 12.8152 4.05814C12.6583 4.35624 12.5237 4.79743 12.7255 5.50095C12.8601 5.94215 12.9498 6.07331 12.9498 6.07331C12.9498 6.07331 12.6022 6.10908 12.5909 6.25218C12.5798 6.40718 12.6583 6.84838 12.8488 7.06301C13.0394 7.27765 13.3085 7.48035 13.3085 7.48035C13.3085 7.48035 13.3085 7.48035 13.4207 7.82616C13.4543 7.92155 13.4992 8.04079 13.5553 8.16003C13.3534 8.39851 13.017 8.74431 12.6807 8.93509C12.1425 9.2332 11.3689 9.74594 11.324 9.78171C11.0998 9.9248 10.9204 10.056 10.8195 10.1752C11.1334 10.044 11.4922 9.9248 11.7949 9.81749C12.1425 9.69825 12.4116 9.61477 12.4116 9.61477C12.4116 9.61477 12.3107 9.69825 12.1425 9.8294C11.9407 9.98442 11.6492 10.1871 11.2792 10.4137C10.6401 10.7953 9.86649 11.5703 9.49649 12.0592C8.99195 12.7747 8.54348 13.4067 8.54348 13.4067C8.54348 13.4067 8.72286 13.4901 8.94711 13.6212C8.79014 14.1102 8.44257 15.2071 8.25197 15.5173C8.00531 15.9107 7.73621 16.3995 7.73621 16.3995L8.01652 16.3281C8.3753 16.3161 8.68923 16.5546 8.68923 16.5546C8.68923 16.5546 7.80349 16.9957 7.27653 17.759C6.74957 18.5221 6.73836 19.4998 6.73836 19.4998C6.60382 19.3567 6.25624 19.011 6.07686 18.8202C6.06565 18.856 6.05443 18.8918 6.04322 18.9274C6.03201 18.9514 6.0208 18.9752 6.0208 18.9991C6.09928 19.3567 6.23383 19.9411 6.35716 20.1676C6.67109 20.728 7.27653 21.1453 7.27653 21.1453C7.27653 21.1453 6.00958 20.5491 5.6508 20.0364C5.6508 20.0364 5.8414 20.6804 6.15534 21.1097C6.09928 21.0977 6.04322 21.0739 5.98716 21.05C5.77414 20.9666 5.56111 20.7996 5.38171 20.6088C5.35929 20.9666 5.43778 21.1453 5.60596 21.2646C5.80777 21.4077 5.8414 21.5389 6.05443 21.5628C6.26746 21.5866 6.17776 21.5866 6.45806 21.7655C6.73836 21.9324 6.62624 21.6224 6.91775 21.7059C7.20926 21.8012 7.23169 21.6104 7.23169 21.6104C7.23169 21.6104 7.45592 21.7655 7.55683 21.6343C7.64653 21.4912 7.6241 21.2766 7.69137 20.8711C7.75865 20.4657 7.65773 20.4777 7.46713 20.2391C7.28774 20.0007 7.08593 19.7145 7.08593 19.7145C7.08593 19.7145 7.16441 19.3091 7.47835 18.9394C7.79228 18.5578 8.34167 18.2001 8.6556 17.8781C9.00317 17.5324 9.01437 17.2104 9.21619 16.9004C9.42921 16.4235 9.37316 16.3042 9.58618 15.8511C9.61982 15.7677 10.1692 15.2311 10.0907 15.0522C9.87769 14.6109 9.64224 14.2174 9.44043 13.9194C9.5077 13.9671 9.57498 14.0267 9.63103 14.0744C10.0459 14.444 10.4719 14.9091 10.4719 14.9091C10.4719 14.9091 10.8195 14.4798 11.1222 14.146C11.1222 14.146 11.7052 13.5974 12.7479 12.3215C12.7479 12.3215 12.2546 13.6332 11.9968 14.2652C11.9968 14.2771 11.9855 14.2891 11.9855 14.3009C12.434 13.9551 12.9049 13.5378 12.9049 13.5378C12.9049 13.5378 11.7837 15.4457 11.5258 16.5666C11.5034 16.9719 11.6828 18.2359 11.5595 18.9752C11.6268 18.9394 11.6828 18.9156 11.7501 18.8918C12.5798 18.5698 13.7122 18.5936 13.7122 18.5936C13.4207 18.6414 13.0618 18.7605 12.6918 18.9156C12.0079 19.2018 11.3016 19.6311 11.0101 19.9887L10.9765 20.0126C10.8083 20.2749 10.6737 20.5135 10.6065 20.6684C10.6065 20.6684 10.9877 20.3346 11.6492 20.1318L11.638 20.1438C11.9855 20.0364 12.6583 19.8695 13.4768 19.7502C14.4745 19.6191 15.7528 19.8576 16.19 19.9529C16.2909 19.9769 16.347 19.9887 16.347 19.9887C16.3133 19.9887 16.2909 19.9887 16.2573 19.9887C14.9791 19.9053 14.0821 19.9411 12.804 20.3346C12.434 20.4538 11.907 20.6922 11.4249 20.9308L11.4137 20.9188C11.4137 20.9188 11.0549 21.0977 10.685 21.3004C10.5168 21.3839 10.3486 21.4793 10.2253 21.5628C10.1356 21.6224 10.0571 21.6701 10.001 21.7059C9.83284 21.837 9.63103 22.5525 9.48528 23.1248C8.91347 24.031 8.24075 25.0684 8.24075 25.0684C8.24075 25.0684 7.38865 26.2728 7.22047 26.6424C7.22047 26.6424 6.81685 26.8213 6.18898 27.2386C6.18898 27.2386 6.60382 26.5948 7.18684 26.3801C7.18684 26.3801 6.64867 26.2251 6.39079 26.3801C6.39079 26.3801 6.52534 25.9389 7.08593 25.8197C7.08593 25.8197 6.67109 25.1757 6.15534 24.8657C5.97595 24.7584 5.8302 24.6034 5.69565 24.4365C5.60596 24.0669 5.81898 24.0072 5.94232 23.6972C6.08806 23.2917 5.96473 23.0174 5.61717 22.8744C5.2696 22.7432 4.26053 23.0056 4.26053 23.0056C4.26053 23.0056 4.78749 22.6478 5.19111 22.6121C5.19111 22.6121 4.17083 22.5166 3.17297 22.2424C2.34329 22.0159 1.68178 22.0397 1.06513 22.2901C0.549384 22.4928 0.852105 23.101 1.14362 23.3276C1.43512 23.5541 1.81633 23.7449 1.81633 23.7449C1.81633 23.7449 1.67057 23.3156 2.15269 23.101C2.15269 23.101 1.96208 23.566 2.06299 23.9238L2.27602 24.0549C2.27602 24.0549 2.17511 23.4825 2.69086 23.2321C2.69086 23.2321 2.43299 23.8521 2.52268 24.198L2.89268 24.3411C2.89268 24.3411 2.91509 23.4945 3.43085 23.2917C3.43085 23.2917 3.15055 24.0429 3.35237 24.4126C3.45327 24.5914 3.63266 24.6869 3.91296 24.7345C3.99144 24.83 4.06992 24.9134 4.12598 24.9969C4.31658 25.3188 4.41749 26.547 4.86597 27.4294C5.31444 28.2999 6.07686 29.6115 6.8729 29.862C7.66895 30.1004 8.55468 29.5876 9.27225 28.9199L9.93375 28.2521C9.93375 28.2521 9.30588 28.0376 8.87984 27.489C8.87984 27.489 9.30588 27.5844 9.56376 27.6679C9.82164 27.7632 10.4831 27.8229 10.4831 27.8229C10.4831 27.8229 9.54134 27.1194 9.2274 26.8451C9.04802 26.6901 8.90226 26.0939 8.81256 25.6289C9.42921 26.2489 10.3822 27.191 10.7971 27.477C11.5931 28.0256 11.9407 27.9659 11.9407 27.9659C11.9407 27.9659 13.4543 26.07 13.9588 25.6527C13.9588 25.6527 12.5013 25.8793 11.3801 25.915C11.3801 25.915 13.0394 25.3427 13.8916 24.9253C13.8916 24.9253 12.6807 24.7465 12.1201 24.8896C12.1201 24.8896 13.5777 24.508 14.5979 24.0072C15.6182 23.5183 17.5354 22.8148 18.1296 22.8267C18.1296 22.8267 16.0106 23.4348 15.293 24.3172C15.293 24.3172 16.0554 24.1741 16.4815 24.2456C16.4815 24.2456 15.024 25.3307 14.8334 25.6169C14.8334 25.6169 15.9994 26.9166 16.6609 27.6201C17.3224 28.3237 18.309 28.5265 18.309 28.5265C18.309 28.5265 18.04 28.1806 17.782 27.3697C17.6811 27.0597 17.6363 26.7497 17.6251 26.4635C17.6924 26.7617 17.8718 27.0955 18.0848 27.4652C18.3539 27.9063 19.4079 29.0869 19.4975 29.2538C20.1142 28.753 20.5738 28.753 20.5738 28.753C20.2936 28.9438 19.6769 29.5876 19.6769 29.5876C19.6769 29.5876 18.6566 30.9113 18.3315 31.6744C18.0063 32.4494 17.6027 34.0473 17.4009 34.4527C17.4009 34.4527 18.7239 32.4017 19.1723 31.6266C19.1723 31.6266 18.4324 33.463 17.8494 34.6196C17.3 35.7166 16.9637 36.3606 16.8067 36.6468C16.6945 36.8495 16.5937 37.0402 16.4367 37.3503C16.4254 37.3503 16.4254 37.3621 16.4143 37.3741C16.3358 37.5172 16.2573 37.6723 16.2012 37.8034C16.1788 37.851 16.1563 37.8988 16.1452 37.9465C16.1228 38.018 15.7864 38.65 16.2461 38.8765C8.72286 39.0078 8.68923 39.0078 8.16227 39.0196C7.65773 39.6993 6.88411 40.1286 5.99838 40.1286C5.48262 40.1286 4.9893 39.9736 4.57446 39.7113C4.92203 39.89 5.30323 39.9855 5.70687 39.9855C6.50291 39.9855 7.20926 39.6158 7.69137 39.0316C8.10621 38.5307 8.36409 37.8749 8.36409 37.1475C8.36409 36.1937 7.92682 35.3589 7.25411 34.8462C7.23169 34.8462 5.39293 34.7627 4.48476 36.1937C4.48476 36.1937 4.59689 35.1085 5.24718 34.4885C5.29203 34.4407 5.33688 34.405 5.38171 34.3692C5.28081 34.4169 5.19111 34.4765 5.09021 34.5362C4.21568 35.1085 3.61023 36.1221 3.61023 37.8034C3.61023 37.8034 3.30752 36.9448 3.58781 35.8597C3.65508 35.5975 3.75599 35.3231 3.90174 35.0489C3.37478 35.5617 3.03842 36.3128 3.03842 37.1356C3.03842 38.1492 3.54296 39.0316 4.29416 39.5324L0 41.154L27.4243 38.7334Z" fill="white"/>
<path id="Vector_2" d="M16.5723 6.26416C16.5723 6.26416 16.3925 6.3835 16.1342 6.46704C15.8646 6.56251 15.449 6.63411 15.449 6.63411C15.449 6.63411 15.5501 6.86085 15.8197 6.90858C15.9657 6.93244 16.3925 6.78924 16.3925 6.78924C16.2914 6.78924 16.1566 6.71765 16.1566 6.71765C16.3027 6.65797 16.5723 6.26416 16.5723 6.26416Z" fill="white"/>
<path id="Vector_3" d="M39.3782 16.0105V2.90564H45.0245C45.9435 2.90564 46.7178 3.04916 47.3472 3.33622C47.9767 3.61079 48.4551 4.00394 48.7824 4.51565C49.1223 5.01488 49.2923 5.60772 49.2923 6.29416C49.2923 6.95564 49.1476 7.51103 48.8579 7.96035C48.5684 8.40965 48.1844 8.75287 47.7061 8.99001C47.2403 9.22714 46.7241 9.37067 46.1575 9.42059L46.4597 9.19593C47.0765 9.2209 47.6179 9.38315 48.0837 9.68269C48.5496 9.98222 48.9146 10.3754 49.179 10.8621C49.4559 11.3364 49.5944 11.8606 49.5944 12.4347C49.5944 13.1461 49.4245 13.7702 49.0846 14.3068C48.7447 14.8435 48.2474 15.2616 47.5927 15.5611C46.9381 15.8606 46.145 16.0105 45.2134 16.0105H39.3782ZM42.2108 13.7264H44.7413C45.3707 13.7264 45.8554 13.5891 46.1953 13.3146C46.5478 13.0275 46.7241 12.6157 46.7241 12.079C46.7241 11.5423 46.5415 11.1242 46.1764 10.8247C45.8239 10.5251 45.333 10.3754 44.7035 10.3754H42.2108V13.7264ZM42.2108 8.29732H44.5336C45.1378 8.29732 45.5974 8.16004 45.912 7.88546C46.2393 7.61088 46.403 7.22398 46.403 6.72475C46.403 6.22552 46.2393 5.83861 45.912 5.56404C45.5974 5.27698 45.1316 5.13346 44.5146 5.13346H42.2108V8.29732Z" fill="white"/>
<path id="Vector_4" d="M57.5223 16.2352C56.2256 16.2352 55.0863 15.948 54.1043 15.374C53.1223 14.7998 52.3482 14.0073 51.7816 12.9964C51.2277 11.973 50.9507 10.7935 50.9507 9.45808C50.9507 8.12265 51.2277 6.94944 51.7816 5.93851C52.3482 4.91508 53.1223 4.11632 54.1043 3.5422C55.0863 2.9681 56.2256 2.68103 57.5223 2.68103C58.8191 2.68103 59.9646 2.9681 60.9592 3.5422C61.9538 4.11632 62.7217 4.91508 63.263 5.93851C63.817 6.94944 64.094 8.12265 64.094 9.45808C64.094 10.7935 63.817 11.973 63.263 12.9964C62.7217 14.0073 61.9538 14.7998 60.9592 15.374C59.9646 15.948 58.8191 16.2352 57.5223 16.2352ZM57.5223 13.7077C58.2903 13.7077 58.945 13.5331 59.4863 13.1836C60.0402 12.8341 60.4683 12.3474 60.7704 11.7233C61.0725 11.0868 61.2236 10.3317 61.2236 9.45808C61.2236 8.58442 61.0725 7.83558 60.7704 7.21154C60.4683 6.57503 60.0402 6.08827 59.4863 5.7513C58.945 5.40184 58.2903 5.2271 57.5223 5.2271C56.7796 5.2271 56.1312 5.40184 55.5773 5.7513C55.0233 6.08827 54.5954 6.57503 54.2932 7.21154C53.9911 7.83558 53.8399 8.58442 53.8399 9.45808C53.8399 10.3317 53.9911 11.0868 54.2932 11.7233C54.5954 12.3474 55.0233 12.8341 55.5773 13.1836C56.1312 13.5331 56.7796 13.7077 57.5223 13.7077Z" fill="white"/>
<path id="Vector_5" d="M72.1105 16.2352C70.8137 16.2352 69.6744 15.948 68.6925 15.374C67.7105 14.7998 66.9362 14.0073 66.3696 12.9964C65.8158 11.973 65.5388 10.7935 65.5388 9.45808C65.5388 8.12265 65.8158 6.94944 66.3696 5.93851C66.9362 4.91508 67.7105 4.11632 68.6925 3.5422C69.6744 2.9681 70.8137 2.68103 72.1105 2.68103C73.4071 2.68103 74.5528 2.9681 75.5473 3.5422C76.5419 4.11632 77.3099 4.91508 77.8512 5.93851C78.405 6.94944 78.6821 8.12265 78.6821 9.45808C78.6821 10.7935 78.405 11.973 77.8512 12.9964C77.3099 14.0073 76.5419 14.7998 75.5473 15.374C74.5528 15.948 73.4071 16.2352 72.1105 16.2352ZM72.1105 13.7077C72.8783 13.7077 73.533 13.5331 74.0744 13.1836C74.6283 12.8341 75.0564 12.3474 75.3585 11.7233C75.6607 11.0868 75.8117 10.3317 75.8117 9.45808C75.8117 8.58442 75.6607 7.83558 75.3585 7.21154C75.0564 6.57503 74.6283 6.08827 74.0744 5.7513C73.533 5.40184 72.8783 5.2271 72.1105 5.2271C71.3676 5.2271 70.7194 5.40184 70.1654 5.7513C69.6115 6.08827 69.1834 6.57503 68.8813 7.21154C68.5791 7.83558 68.4281 8.58442 68.4281 9.45808C68.4281 10.3317 68.5791 11.0868 68.8813 11.7233C69.1834 12.3474 69.6115 12.8341 70.1654 13.1836C70.7194 13.5331 71.3676 13.7077 72.1105 13.7077Z" fill="white"/>
<path id="Vector_6" d="M80.5425 16.0105V2.90564H83.3751V7.86674L87.9449 2.90564H91.4196L86.5664 8.09139L91.5896 16.0105H88.115L84.5459 10.263L83.3751 11.5174V16.0105H80.5425Z" fill="white"/>
<path id="Vector_7" d="M97.0127 16.0105V2.90564H100.412L104.264 10.7872L108.079 2.90564H111.459V16.0105H108.626V7.64208L105.378 14.1757H103.112L99.8453 7.64208V16.0105H97.0127Z" fill="white"/>
<path id="Vector_8" d="M117.215 16.0105V11.5174L112.701 2.90564H115.912L118.914 9.19593H118.386L121.369 2.90564H124.541L120.047 11.5174V16.0105H117.215Z" fill="white"/>
<path id="Vector_9" d="M37.7656 36.654V19.4541H44.5072C45.9283 19.4541 47.1013 19.6916 48.0266 20.1666C48.9686 20.6417 49.6707 21.2969 50.1335 22.1323C50.596 22.9514 50.8275 23.877 50.8275 24.909C50.8275 25.8754 50.6043 26.7681 50.1582 27.5872C49.7121 28.4063 49.0264 29.0697 48.1011 29.5775C47.1757 30.0854 45.9778 30.3392 44.5072 30.3392H41.4833V36.654H37.7656ZM41.4833 27.3906H44.2594C45.2342 27.3906 45.9364 27.1695 46.3661 26.7272C46.8122 26.2685 47.0353 25.6625 47.0353 24.909C47.0353 24.139 46.8122 23.5411 46.3661 23.1153C45.9364 22.6729 45.2342 22.4517 44.2594 22.4517H41.4833V27.3906Z" fill="white"/>
<path id="Vector_10" d="M52.9751 36.654V19.4541H56.6929V33.8038H64.1781V36.654H52.9751Z" fill="white"/>
<path id="Vector_11" d="M65.6399 36.654L71.9601 19.4541H76.2231L82.5435 36.654H78.6025L74.0669 23.6067L69.5312 36.654H65.6399ZM68.391 32.8947L69.3825 30.0443H78.4786L79.4453 32.8947H68.391Z" fill="white"/>
<path id="Vector_12" d="M86.865 36.654V30.757L80.9414 19.4541H85.1549L89.0957 27.71H88.4017L92.3179 19.4541H96.4817L90.5829 30.757V36.654H86.865Z" fill="white"/>
<path id="Vector_13" d="M98.1919 36.654V19.4541H109.816V22.4272H101.91V26.4815H109.073V29.3318H101.91V33.681H109.816V36.654H98.1919Z" fill="white"/>
<path id="Vector_14" d="M112.506 36.654V19.4541H119.247C120.652 19.4541 121.817 19.6997 122.742 20.1911C123.684 20.6663 124.378 21.3051 124.823 22.1078C125.287 22.9104 125.518 23.8032 125.518 24.786C125.518 25.7034 125.295 26.5634 124.848 27.3661C124.419 28.1687 123.741 28.8158 122.816 29.3072C121.89 29.7987 120.693 30.0443 119.223 30.0443H116.223V36.654H112.506ZM121.453 36.654L117.958 29.1353H121.948L125.666 36.654H121.453ZM116.223 27.3906H119.024C119.95 27.3906 120.627 27.1695 121.057 26.7272C121.503 26.2849 121.726 25.687 121.726 24.9335C121.726 24.1963 121.503 23.6148 121.057 23.1889C120.627 22.7467 119.95 22.5255 119.024 22.5255H116.223V27.3906Z" fill="white"/>
</g>
<defs>
<clipPath id="clip0_1_41">
<rect width="125.666" height="40.3081" fill="white" transform="translate(0 0.845947)"/>
</clipPath>
</defs>
</svg>
