<svg width="28" height="22" viewBox="0 0 28 22" fill="none" xmlns="http://www.w3.org/2000/svg">
<path id="Vector" d="M24.9229 21.8066L15.4763 14.2838C14.7266 14.7614 13.8644 15.1396 12.8897 15.4182C11.9151 15.6968 10.878 15.8361 9.77836 15.8361C7.05434 15.8361 4.74917 15.0846 2.86284 13.5816C0.976521 12.0787 0.0328608 10.2429 0.0318611 8.07443C0.0308615 5.90593 0.974522 4.0702 2.86284 2.56722C4.75116 1.06423 7.05633 0.312744 9.77836 0.312744C12.5004 0.312744 14.806 1.06423 16.6954 2.56722C18.5847 4.0702 19.5279 5.90593 19.5249 8.07443C19.5249 8.95011 19.3499 9.77603 19 10.5522C18.6502 11.3284 18.1753 12.015 17.5756 12.612L27.0222 20.1349L24.9229 21.8066ZM9.77836 13.4479C11.6527 13.4479 13.2461 12.9257 14.5586 11.8812C15.8712 10.8368 16.5269 9.56786 16.5259 8.07443C16.5249 6.581 15.8692 5.31246 14.5586 4.26882C13.2481 3.22517 11.6547 2.70255 9.77836 2.70095C7.90203 2.69936 6.3091 3.22198 4.99958 4.26882C3.69005 5.31565 3.03378 6.58419 3.03078 8.07443C3.02778 9.56467 3.68405 10.8336 4.99958 11.8812C6.3151 12.9289 7.90803 13.4511 9.77836 13.4479Z" fill="#FE5C4D"/>
</svg>
